<svg width="98" height="97" viewBox="0 0 98 97" fill="none" xmlns="http://www.w3.org/2000/svg">
<path d="M96.85 66.1053V70.2883C96.85 70.4999 96.7316 70.6927 96.5458 70.7837L45.027 96L1.16101 75.311C0.971481 75.2216 0.849976 75.0268 0.849976 74.8123V70.6348M45.027 96V91.4705M45.027 81.5056V91.4705M45.027 81.5056L22.9385 70.6348L0.849976 59.764M45.027 81.5056L70.9385 68.823L96.85 56.1404M0.849976 70.6348V59.764L50.7388 33.6161C50.8869 33.5384 51.0618 33.5363 51.2117 33.6103L96.85 56.1404V66.1053M45.027 91.4705L96.85 66.1053M45.027 91.4705L0.849976 70.6348" stroke="#6366F1" stroke-width="1.7"/>
<path d="M55.7833 15.9086C55.7833 24.6947 48.8586 31.8172 40.3166 31.8172C31.7746 31.8172 24.85 24.6947 24.85 15.9086C24.85 7.12253 31.7746 0 40.3166 0C48.8586 0 55.7833 7.12253 55.7833 15.9086Z" fill="#D9D9D9"/>
<path d="M55.7833 15.9086C55.7833 24.6947 48.8586 31.8172 40.3166 31.8172C31.7746 31.8172 24.85 24.6947 24.85 15.9086C24.85 7.12253 31.7746 0 40.3166 0C48.8586 0 55.7833 7.12253 55.7833 15.9086Z" fill="#6366F1"/>
<ellipse cx="60.3185" cy="49.5013" rx="10.1947" ry="6.3413" fill="#6366F1"/>
<ellipse cx="39.9293" cy="57.9525" rx="10.1947" ry="6.3413" fill="#6366F1"/>
<path d="M36.7017 59.7643V30.7755M43.4981 59.7643V30.7755" stroke="#6366F1" stroke-width="0.7"/>
<path d="M60.3191 43.0958C64.0559 43.096 67.0652 45.5173 67.0652 48.4816C67.0651 51.4458 64.0558 53.8662 60.3191 53.8663C56.5822 53.8663 53.5721 51.4459 53.572 48.4816C53.572 45.5171 56.5821 43.0958 60.3191 43.0958Z" fill="#6366F1" stroke="white" stroke-width="0.1"/>
</svg>
